<svg width="512" height="512" xmlns="http://www.w3.org/2000/svg"><path d="M12 255V12h486v486H12zm450 123.5V295h-13v155h-54V295l-16.75.011-16.75.011-21.468 77.51-21.468 77.51-18.958-.271-18.96-.27-17.78-64c-9.78-35.2-19.437-69.963-21.46-77.25L237.728 295H204v155h-54V295h-28v155H61V295H48v167h414zm-153.978-59l6.665-24-14.483-.278c-7.965-.152-14.675-.084-14.911.152-.236.236 2.526 11.033 6.139 23.994C295.044 332.33 298 343.207 298 343.54c0 7.005 4.195-3.059 10.022-24.04zM61 152.5V60h61v185h28V59.974l34.691.263 34.691.263 25.607 92 25.607 92 29.202.265c16.061.146 29.202.03 29.202-.256 0-.438 49.05-177.568 50.61-182.759.487-1.623 3.031-1.75 34.957-1.75H449v185h13V48H48v197h13zm160.526 84.25c-1.257-4.537-4.926-17.813-8.154-29.5-8.595-31.115-9.372-30.43-9.372 8.25V245h19.811zM395 215.427c0-39.075-.408-39.11-11.084-.927-4.306 15.4-7.849 28.563-7.873 29.25-.031.915 2.5 1.25 9.457 1.25h9.5z" fill="#000000"/></svg>