<svg width="512" height="512" xmlns="http://www.w3.org/2000/svg"><path fill="none" paint-order="fill markers stroke" d="M0 0.829H512V512.829H0z"/><path d="M181.385 103.38l-66.462 308.68 25.511-.002 61.219-308.678h-20.268zm-72.528 0L42.395 412.06l25.511-.002 61.219-308.678h-20.268z" style="-inkscape-font-specification:'SF Pro, Italic'" font-style="italic" font-size="494.515px" font-family="SF Pro" letter-spacing="-26.2175px" word-spacing="-3.95285px" fill="#e68642" stroke="#e68642" stroke-width="20" stroke-linecap="square" stroke-miterlimit="3" paint-order="fill markers stroke"/><path d="M255.745 101.523l-62.381 309.004c43.268-.369 86.579.79 129.817-.683 56.01-3.527 106.796-42.857 127.342-95.888 16.94-42.423 22.044-91.228 9.235-135.525-11.988-41.438-50.518-70.118-91.717-75-34.388-3.545-69.064-1.254-103.59-1.908h-8.706zm30.679 34.262c34.498 1.318 71.304-5.276 102.987 12.302 33.253 17.98 41.799 60.407 39.038 95.686-1.88 54.076-33.326 110.037-85.916 126.717-29.581 9.238-60.773 4.67-91.198 5.775-5.933-.75-17.699 3.347-12.43-6.712l47.519-233.768z" style="-inkscape-font-specification:'SF Pro, Italic'" font-style="italic" font-size="475.662px" font-family="SF Pro" letter-spacing="-25.218px" word-spacing="-3.80214px" fill="#e68642" stroke="#e68642" stroke-width="20" stroke-linecap="square" stroke-miterlimit="3" paint-order="fill markers stroke"/></svg>